# xmcd
# 
# Track frame offsets:
#     183
#     15588
#     39490
#     53728
#     82518
#     98998
#     119050
#     136990
#     160978
#     184565
#     203085
#     219983
#     239463
#     261510
# 
# Disc length: 3698
# 
# Revision: 2
# Processed by: cddbd v1.5.2PL0 Copyright (c) Steve Scherf et al.
# Submitted via: BonkEnc v1.0.15
# 
DISCID=ba0e700e
DTITLE=夏韶聲 - My Friend 夏韶聲 88' 搖擺精選
DYEAR=1988
DGENRE=Blues
TTITLE0=My Friend
TTITLE1=搖擺心窩
TTITLE2=空凳
TTITLE3=說不出 的未來
TTITLE4=永不放棄
TTITLE5=深信著愛
TTITLE6=你是氫氣我是氧
TTITLE7=仍在等待你
TTITLE8=新交叉點
TTITLE9=車站
TTITLE10=說句動聽話
TTITLE11=啤酒罐 
TTITLE12=打錯電話
TTITLE13=吸血婦人
EXTD=
EXTT0=
EXTT1=
EXTT2=
EXTT3=
EXTT4=
EXTT5=
EXTT6=
EXTT7=
EXTT8=
EXTT9=
EXTT10=
EXTT11=
EXTT12=
EXTT13=
PLAYORDER=
